<?xml version="1.0" standalone="no"?>
<!DOCTYPE svg PUBLIC "-//W3C//DTD SVG 20010904//EN"
 "http://www.w3.org/TR/2001/REC-SVG-20010904/DTD/svg10.dtd">
<svg version="1.0" xmlns="http://www.w3.org/2000/svg"
 width="262.000000pt" height="284.000000pt" viewBox="0 0 262.000000 284.000000"
 preserveAspectRatio="xMidYMid meet">

<g transform="translate(0.000000,284.000000) scale(0.100000,-0.100000)"
fill="#000000" stroke="none">
<path d="M1060 2761 c-8 -6 -30 -11 -48 -11 -18 0 -47 -7 -63 -16 -17 -8 -58
-24 -92 -35 -34 -11 -71 -26 -84 -34 -12 -8 -27 -15 -33 -15 -18 0 -120 -53
-120 -62 0 -5 -19 -17 -42 -27 -58 -25 -115 -82 -139 -137 -16 -38 -19 -69
-19 -188 0 -79 5 -168 11 -200 7 -31 9 -59 6 -63 -4 -3 -25 2 -47 12 -82 37
-144 13 -155 -60 -4 -33 -1 -56 13 -88 10 -23 25 -67 32 -97 16 -65 41 -112
93 -175 35 -41 42 -45 84 -45 34 0 53 6 70 22 20 19 25 20 37 7 38 -39 79
-262 74 -405 l-3 -82 40 -41 c22 -22 43 -41 48 -41 10 0 91 -53 95 -62 2 -5 9
-8 16 -8 7 0 44 -20 82 -45 38 -24 77 -45 86 -45 9 0 18 -3 20 -7 4 -10 65
-53 75 -53 4 0 19 -9 33 -20 34 -26 44 -25 79 9 36 36 77 52 68 27 -5 -11 -1
-16 13 -16 11 0 20 5 20 12 0 6 10 0 22 -13 16 -18 19 -19 15 -6 -7 20 13 47
35 47 8 -1 6 -6 -6 -15 -11 -8 -16 -18 -12 -22 3 -4 18 5 32 20 13 15 36 30
49 33 14 3 22 11 18 17 -4 6 -1 7 6 3 7 -5 21 0 32 10 18 17 47 35 79 51 8 4
21 13 28 20 7 7 34 25 60 40 51 29 96 73 117 113 7 14 15 78 18 145 4 92 10
132 27 170 13 31 20 63 17 85 -4 39 16 98 37 106 8 3 29 -2 47 -11 27 -14 31
-15 26 -2 -5 13 0 13 30 5 23 -6 43 -6 57 0 27 12 73 102 87 172 6 30 22 76
35 102 35 68 32 111 -10 153 -41 43 -61 44 -114 5 -51 -37 -77 -32 -68 14 15
71 18 280 6 335 -22 100 -77 177 -147 207 -17 8 -34 18 -38 24 -9 14 -134 72
-148 67 -6 -2 4 -9 21 -16 18 -8 32 -17 32 -22 0 -5 5 -9 11 -9 6 0 24 -11 41
-25 59 -50 -34 -12 -115 46 -22 16 -47 29 -56 29 -9 1 -32 9 -51 20 -27 15
-30 19 -15 20 19 1 19 1 1 11 -14 9 -20 8 -27 -2 -6 -11 -11 -11 -21 -1 -9 9
-9 12 2 12 11 0 11 3 -2 16 -18 18 -97 29 -288 39 -66 4 -111 2 -120 -4z m323
-28 c-7 -2 -21 -2 -30 0 -10 3 -4 5 12 5 17 0 24 -2 18 -5z m87 -355 c11 -12
20 -25 20 -29 0 -4 9 -9 21 -12 18 -5 20 -10 14 -39 -4 -18 -11 -37 -16 -42
-11 -12 -12 -47 -1 -44 32 7 175 -62 159 -78 -2 -2 -66 -4 -143 -5 -76 -1
-155 -5 -174 -9 -19 -4 -47 -11 -62 -14 -25 -6 -27 -9 -17 -33 6 -16 6 -29 0
-32 -5 -3 -11 -17 -12 -31 -5 -34 -41 -38 -68 -9 -12 13 -21 30 -21 39 0 39
-126 94 -217 95 -60 0 -84 16 -65 43 32 45 45 81 44 119 0 46 -8 43 134 62 34
4 66 11 73 15 6 4 59 9 117 11 58 2 109 6 112 9 3 3 22 6 43 6 26 0 45 -7 59
-22z m230 -353 c7 -9 34 -25 59 -36 41 -17 80 -63 66 -77 -7 -8 -35 19 -35 34
0 18 -23 27 -135 55 -49 12 -94 26 -99 31 -6 4 22 8 61 8 51 0 74 -4 83 -15z
m-835 -5 c-11 -5 -36 -9 -55 -9 -28 0 -31 2 -15 9 11 5 36 9 55 9 28 0 31 -2
15 -9z m-98 -16 c-3 -3 -12 -4 -19 -1 -8 3 -5 6 6 6 11 1 17 -2 13 -5z m231
-32 c25 -16 2 -42 -38 -42 -34 0 -37 2 -32 25 3 19 10 25 31 25 14 0 32 -4 39
-8z m500 -16 c4 -16 0 -18 -29 -12 -40 8 -48 14 -29 27 23 14 54 6 58 -15z
m172 4 c0 -10 -31 -23 -38 -15 -8 7 19 35 29 29 5 -3 9 -9 9 -14z m422 -39
c22 -48 36 -121 31 -158 l-5 -30 -34 35 c-18 19 -43 54 -54 77 -12 24 -27 46
-35 49 -22 8 -18 30 9 59 21 22 27 24 48 15 12 -6 30 -27 40 -47z m-1285 3
c-1 -1 -14 0 -29 3 -29 5 -38 28 -15 36 9 4 51 -33 44 -39z m923 -14 c0 -5 -7
-10 -15 -10 -8 0 -15 5 -15 10 0 6 7 10 15 10 8 0 15 -4 15 -10z m40 -46 c8
-8 27 -21 44 -28 26 -11 34 -22 44 -63 12 -44 11 -54 -7 -93 -11 -24 -17 -48
-15 -52 3 -4 -2 -5 -11 -2 -11 4 -14 2 -9 -9 3 -8 0 -18 -5 -22 -6 -3 -9 -10
-6 -15 7 -11 -62 -56 -100 -66 -16 -4 -32 -1 -43 8 -23 19 -61 36 -98 43 -17
3 -42 15 -57 27 -21 17 -24 26 -20 54 4 22 2 34 -6 34 -6 0 -11 -4 -11 -10 0
-5 -7 -10 -16 -10 -8 0 -13 4 -10 9 9 14 -59 36 -101 32 -7 0 -23 -13 -37 -28
-35 -37 -80 -38 -118 -1 -32 32 -42 33 -78 13 -14 -8 -36 -14 -50 -14 -23 0
-24 1 -6 12 10 7 37 27 59 45 53 43 103 64 150 63 42 -1 118 -31 143 -56 8 -8
27 -15 42 -15 l26 0 -22 20 c-26 24 -26 29 -7 53 7 11 11 25 9 32 -4 9 17 12
85 13 50 1 99 6 110 11 11 6 29 11 40 11 12 0 21 5 21 10 0 16 46 12 60 -6z
m243 -63 c6 -26 -1 -33 -24 -20 -11 5 -19 21 -19 35 0 21 3 23 19 15 10 -6 21
-19 24 -30z m-1053 -6 c9 -10 3 -19 -25 -40 -43 -34 -44 -47 -2 -66 49 -21 49
-58 -1 -92 -21 -15 -50 -27 -64 -27 -27 0 -108 47 -108 62 0 4 -6 8 -14 8 -7
0 -20 10 -29 23 -8 12 -31 39 -51 60 -40 43 -39 57 3 57 16 0 34 6 40 14 17
20 234 21 251 1z m1050 -60 c0 -19 -24 -29 -47 -20 -17 6 -17 7 1 21 26 18 46
18 46 -1z m-1560 -35 c0 -5 -4 -10 -10 -10 -5 0 -10 5 -10 10 0 6 5 10 10 10
6 0 10 -4 10 -10z m970 -59 c-25 -15 -110 -25 -110 -13 0 6 19 13 43 15 83 7
83 7 67 -2z m610 -1 c0 -5 -5 -10 -11 -10 -5 0 -7 5 -4 10 3 6 8 10 11 10 2 0
4 -4 4 -10z m-616 -156 c25 -4 46 -10 46 -13 0 -9 -69 -39 -107 -47 -39 -8
-100 12 -113 36 -9 17 -5 19 32 23 81 7 95 7 142 1z m-20 -152 c8 -13 -8 -30
-38 -42 -27 -10 -170 -5 -188 6 -21 13 -3 24 37 24 25 0 45 5 45 10 0 12 136
14 144 2z m166 -31 c0 -21 -26 -36 -36 -20 -6 11 13 39 27 39 5 0 9 -9 9 -19z
m-47 -131 c22 -6 36 -16 34 -23 -5 -15 -244 -14 -259 1 -6 6 -8 18 -4 28 5 14
18 16 99 11 50 -3 109 -10 130 -17z m-184 -346 c10 -9 -35 -3 -49 6 -11 8 -7
9 15 4 17 -4 32 -8 34 -10z m61 1 c-14 -17 -40 -20 -40 -6 0 5 10 12 23 14 12
2 24 5 26 6 2 0 -2 -6 -9 -14z"/>
<path d="M1835 1729 c-4 -6 -5 -12 -2 -15 2 -3 7 2 10 11 7 17 1 20 -8 4z"/>
<path d="M1565 2676 c11 -7 31 -16 45 -20 l25 -7 -25 20 c-14 11 -34 21 -45
21 -19 0 -19 0 0 -14z"/>
<path d="M1877 984 c22 -103 -14 -498 -51 -569 -9 -16 -16 -47 -16 -68 0 -42
-26 -181 -40 -212 -4 -11 -11 -34 -14 -51 -3 -18 -8 -43 -12 -58 l-6 -26 71 0
c55 0 71 3 71 14 0 24 20 29 41 10 27 -24 226 -35 240 -13 15 23 10 45 -11 55
-18 8 -17 10 15 20 33 10 35 10 35 -12 0 -13 -4 -24 -10 -24 -5 0 -10 -11 -10
-25 0 -18 5 -25 19 -25 14 0 21 10 25 35 8 41 26 56 26 21 0 -13 6 -27 13 -29
6 -3 2 -6 -10 -6 -13 -1 -23 -5 -23 -9 0 -13 44 -12 53 1 7 9 10 9 14 0 3 -10
46 -13 164 -13 l159 0 0 24 c0 29 -42 51 -118 61 -31 4 -56 13 -59 21 -6 17
-34 19 -30 2 1 -8 -12 -14 -36 -16 -20 -2 -35 -7 -32 -12 8 -14 -16 -23 -28
-11 -8 8 -7 11 4 12 7 0 3 5 -11 11 l-25 10 23 9 c22 8 22 10 6 34 -9 14 -24
25 -33 25 -12 1 -10 6 9 23 19 17 26 34 28 72 2 28 7 54 12 59 9 9 -7 44 -29
62 -8 6 -37 19 -65 29 -28 10 -60 22 -70 28 -18 9 -19 10 -2 22 9 7 25 11 34
8 20 -5 23 6 24 85 2 67 -15 143 -40 187 -12 20 -20 41 -16 46 6 10 -23 25
-32 16 -3 -3 6 -29 20 -59 14 -30 26 -67 26 -83 1 -17 2 -49 3 -72 1 -35 -4
-48 -28 -72 -17 -17 -38 -31 -47 -31 -9 0 -20 -9 -23 -21 -4 -12 -12 -18 -21
-15 -8 3 -14 -1 -14 -9 0 -18 26 -20 33 -2 3 8 10 7 23 -7 11 -10 14 -16 8
-13 -7 4 -17 0 -24 -8 -11 -13 -10 -18 6 -31 19 -14 19 -15 -1 -12 -12 2 -21
12 -23 26 -3 21 -9 24 -64 26 l-26 2 26 -25 c18 -16 22 -26 14 -29 -10 -3 -10
-7 -1 -18 10 -12 8 -16 -9 -21 -12 -3 -22 -8 -22 -12 0 -14 54 -30 84 -25 30
5 30 5 11 -11 -15 -12 -31 -15 -61 -10 -32 5 -41 3 -41 -10 0 -8 6 -15 13 -15
19 0 24 -39 6 -50 -16 -9 -16 -11 1 -24 15 -12 15 -15 2 -26 -11 -9 -12 -17
-4 -31 8 -15 6 -21 -6 -25 -9 -4 -14 -12 -11 -19 6 -17 -32 -26 -69 -16 -18 4
-32 15 -34 27 -3 19 -3 19 17 0 12 -10 28 -16 37 -12 19 7 11 26 -10 26 -8 0
-22 11 -31 25 -20 30 -33 25 -26 -11 4 -24 3 -26 -19 -19 -13 4 -26 9 -28 11
-9 8 32 191 59 264 70 189 89 282 79 381 -5 40 -6 84 -3 96 4 14 2 23 -6 23
-6 0 -9 4 -5 10 3 5 2 17 -4 27 -5 10 -17 35 -27 56 -11 21 -25 43 -32 50 -11
9 -12 4 -5 -29z m199 -643 c1 -23 -11 -37 -20 -22 -4 5 -2 13 4 16 8 5 7 12
-2 23 -11 13 -11 14 2 10 8 -2 16 -15 16 -27z m153 -12 c-16 -10 -23 -4 -14
10 3 6 11 8 17 5 6 -4 5 -9 -3 -15z m57 6 c4 -8 0 -25 -8 -38 -8 -12 -25 -57
-38 -99 -19 -59 -29 -78 -42 -78 -22 0 -24 16 -2 24 9 3 14 13 10 21 -3 8 -1
17 5 21 12 7 2 43 -19 67 -8 9 -12 20 -9 24 4 3 7 1 7 -6 0 -7 6 -11 14 -8 7
3 19 0 26 -6 9 -9 11 -7 8 10 -2 13 5 29 17 38 14 12 16 18 7 21 -6 3 -10 10
-6 15 8 14 24 11 30 -6z m-142 -70 c-4 -8 -10 -15 -15 -15 -4 0 -6 7 -3 15 4
8 10 15 15 15 4 0 6 -7 3 -15z m135 -161 c1 -6 -6 -11 -14 -11 -10 0 -14 6
-10 14 3 8 5 22 6 31 0 14 2 13 9 -3 5 -11 9 -25 9 -31z m196 -54 c18 -19 17
-20 -3 -20 -12 0 -22 2 -22 4 0 2 -3 11 -6 20 -9 22 9 20 31 -4z m-636 -31
c-21 -13 -29 -11 -29 10 0 24 22 33 34 13 5 -9 4 -17 -5 -23z m751 11 c0 -5
-7 -10 -16 -10 -8 0 -12 5 -9 10 3 6 10 10 16 10 5 0 9 -4 9 -10z"/>
<path d="M477 896 c-76 -73 -86 -86 -79 -106 14 -38 -17 -150 -41 -150 -22 0
-29 88 -10 125 9 16 21 34 27 38 6 5 0 6 -14 2 -14 -3 -41 -8 -60 -11 -19 -3
-55 -14 -80 -24 -25 -10 -84 -24 -133 -31 l-87 -12 0 -364 0 -363 166 0 c144
0 165 2 160 15 -3 9 0 15 8 15 7 0 19 6 25 14 10 12 8 15 -10 18 -12 2 -24 8
-26 14 -5 15 41 34 66 27 22 -6 29 -23 10 -23 -7 0 -9 -11 -6 -26 4 -20 0 -28
-15 -32 -43 -11 9 -20 128 -21 l124 -2 -5 68 c-3 43 -2 61 4 48 5 -11 7 -23 4
-27 -2 -4 1 -26 7 -48 8 -29 16 -40 30 -40 11 0 20 3 20 8 0 21 -64 168 -78
178 -8 6 -13 18 -9 27 3 9 2 17 -4 19 -5 2 -14 44 -20 93 -6 50 -17 118 -24
151 -12 62 -7 93 14 80 6 -4 11 -24 12 -44 1 -20 5 -48 9 -62 9 -27 8 -1 -11
266 -7 89 -10 179 -7 201 3 22 3 45 -1 51 -4 6 -43 -24 -94 -72z m-98 -282
c-11 -14 -10 -18 6 -31 19 -13 19 -15 3 -24 -10 -6 -18 -16 -18 -24 0 -8 -5
-17 -12 -21 -7 -4 -8 -3 -4 4 4 7 2 12 -4 12 -7 0 -10 6 -7 13 2 6 0 23 -5 36
-12 34 -3 51 28 51 23 0 25 -2 13 -16z m11 -124 c0 -5 -2 -10 -4 -10 -3 0 -8
5 -11 10 -3 6 -1 10 4 10 6 0 11 -4 11 -10z m-42 -128 c28 -56 28 -56 -8 -49
-19 4 -38 3 -46 -4 -11 -9 -14 -8 -14 4 0 18 24 39 35 29 4 -4 5 5 3 21 -7 35
13 35 30 -1z m16 -99 c7 9 17 17 21 17 4 0 2 -7 -5 -15 -10 -12 -9 -15 5 -15
12 0 16 -6 12 -20 -3 -11 -1 -35 3 -55 7 -30 5 -37 -12 -46 -11 -6 -25 -8 -33
-6 -7 3 -17 1 -23 -5 -6 -6 -18 -8 -27 -4 -30 11 0 32 44 31 23 0 41 3 41 7 0
5 -7 8 -15 8 -8 0 -15 5 -15 10 0 6 8 10 17 10 16 0 16 1 1 17 -13 13 -20 14
-31 5 -26 -22 -47 25 -38 86 1 4 10 -4 21 -18 19 -23 21 -24 34 -7z m-77 -5
c-3 -8 -6 -5 -6 6 -1 11 2 17 5 13 3 -3 4 -12 1 -19z"/>
<path d="M1075 671 c-22 -4 -52 -16 -67 -26 l-25 -20 21 -24 c11 -13 43 -45
69 -70 73 -68 73 -69 31 -158 -46 -99 -61 -150 -69 -238 -3 -38 -8 -85 -11
-102 l-5 -33 186 0 185 0 0 78 c0 97 -14 183 -47 292 -41 136 -42 127 22 198
35 38 65 62 78 63 16 0 13 4 -13 13 -55 21 -287 38 -355 27z"/>
<path d="M1477 619 c7 -7 15 -10 18 -7 3 3 -2 9 -12 12 -14 6 -15 5 -6 -5z"/>
<path d="M1937 408 c-9 -44 -8 -98 3 -98 5 0 10 7 10 15 0 8 7 15 15 15 8 0
15 5 15 10 0 6 -5 10 -11 10 -7 0 -9 12 -5 35 5 27 4 35 -7 35 -8 0 -17 -10
-20 -22z"/>
<path d="M592 375 c0 -16 3 -52 8 -80 l7 -50 1 55 c0 30 -4 66 -8 80 -8 24 -8
24 -8 -5z"/>
<path d="M2380 290 c0 -5 5 -10 11 -10 5 0 7 5 4 10 -3 6 -8 10 -11 10 -2 0
-4 -4 -4 -10z"/>
<path d="M2335 220 c-3 -5 1 -10 9 -10 9 0 16 5 16 10 0 6 -4 10 -9 10 -6 0
-13 -4 -16 -10z"/>
<path d="M1870 200 c-6 -12 -10 -24 -7 -26 10 -11 57 9 57 24 0 8 -3 12 -7 9
-3 -4 -12 -2 -19 4 -9 8 -16 5 -24 -11z"/>
<path d="M2508 163 c7 -3 16 -2 19 1 4 3 -2 6 -13 5 -11 0 -14 -3 -6 -6z"/>
<path d="M2596 115 c-3 -9 0 -15 9 -15 8 0 15 7 15 15 0 8 -4 15 -9 15 -5 0
-11 -7 -15 -15z"/>
<path d="M2358 113 c6 -2 18 -2 25 0 6 3 1 5 -13 5 -14 0 -19 -2 -12 -5z"/>
</g>
</svg>
