<?xml version="1.0" standalone="no"?>
<!DOCTYPE svg PUBLIC "-//W3C//DTD SVG 20010904//EN"
 "http://www.w3.org/TR/2001/REC-SVG-20010904/DTD/svg10.dtd">
<svg version="1.0" xmlns="http://www.w3.org/2000/svg"
 width="512.000000pt" height="512.000000pt" viewBox="0 0 512.000000 512.000000"
 preserveAspectRatio="xMidYMid meet">

<g transform="translate(0.000000,512.000000) scale(0.100000,-0.100000)"
fill="#000000" stroke="none">
<path d="M0 2560 l0 -2560 2560 0 2560 0 0 2560 0 2560 -2560 0 -2560 0 0
-2560z m2695 1754 c179 -16 409 -99 582 -210 232 -148 419 -358 551 -619 212
-418 237 -937 66 -1380 -57 -146 -175 -340 -273 -445 l-51 -55 0 38 c0 20 5
37 11 37 11 0 8 43 -7 135 -9 58 -33 128 -50 147 -9 9 -14 24 -12 35 2 12 -4
19 -20 21 -21 3 -23 1 -17 -20 4 -13 15 -36 24 -53 25 -42 31 -75 21 -96 -7
-12 -5 -26 7 -46 11 -20 14 -38 9 -57 -8 -31 -71 -96 -93 -96 -7 0 -16 -7 -19
-15 -3 -8 -14 -17 -25 -20 -26 -8 -24 -35 2 -35 14 0 19 5 16 14 -4 10 -1 13
9 9 22 -8 12 -36 -14 -38 -13 -1 -25 2 -28 7 -7 12 -74 10 -74 -2 0 -5 7 -10
15 -10 15 0 19 -16 16 -52 -1 -10 3 -18 9 -18 6 0 8 -4 5 -10 -3 -5 -15 -10
-26 -10 -10 0 -19 -4 -19 -10 0 -5 6 -10 14 -10 7 0 19 -7 26 -15 7 -8 16 -12
21 -9 5 3 9 0 9 -5 0 -12 -10 -14 -53 -11 -24 1 -28 -1 -23 -18 5 -15 -3 -25
-33 -45 -36 -24 -86 -34 -75 -15 3 5 10 6 15 3 5 -4 6 2 2 11 -4 11 -8 13 -11
6 -2 -7 -10 -12 -18 -12 -8 0 -14 -7 -14 -15 0 -29 -18 -55 -39 -55 -19 0 17
145 82 335 55 160 72 258 59 352 -5 37 -7 83 -5 101 3 18 1 32 -5 32 -6 0 -8
9 -5 20 3 11 0 20 -6 20 -6 0 -11 9 -11 20 0 11 -9 36 -21 57 -43 79 -53 72
-33 -22 12 -56 13 -92 4 -190 -15 -173 -51 -397 -66 -416 -8 -8 -14 -33 -14
-55 -1 -66 -47 -274 -66 -295 -23 -26 -177 -74 -300 -93 -148 -23 -134 -33
-134 95 0 96 -5 130 -36 248 -20 75 -40 140 -45 145 -16 18 -10 37 29 84 46
58 89 95 116 103 42 11 -22 31 -128 40 -187 16 -219 17 -277 9 -69 -10 -131
-47 -107 -64 8 -6 23 -26 33 -43 11 -18 23 -33 28 -33 18 0 97 -90 97 -110 0
-12 -18 -59 -40 -106 -46 -98 -67 -172 -76 -272 -4 -40 -8 -72 -9 -72 -2 0
-42 12 -91 26 -126 36 -302 126 -381 194 -40 35 -41 36 -46 115 -3 44 -13 111
-22 148 -16 70 -14 87 10 87 8 0 15 -13 17 -32 3 -32 4 -32 8 8 3 22 -1 105
-8 185 -7 79 -10 183 -6 232 3 48 2 87 -3 87 -4 0 -29 -20 -55 -44 -26 -24
-59 -51 -74 -61 -14 -9 -33 -30 -42 -46 -10 -16 -22 -29 -28 -29 -6 0 -11 -7
-11 -15 0 -8 4 -15 9 -15 12 0 10 -58 -2 -65 -5 -3 -10 -21 -10 -40 0 -18 -7
-40 -15 -48 -13 -13 -13 -16 0 -27 12 -10 13 -16 3 -27 -10 -12 -9 -18 5 -28
19 -13 23 -35 7 -35 -6 0 -14 -9 -18 -20 -5 -15 -11 -17 -22 -9 -11 8 -12 12
-2 16 9 3 6 13 -10 35 -17 25 -19 34 -9 50 6 10 9 23 5 29 -3 5 -1 16 6 24 8
10 8 19 1 34 -17 31 -13 53 15 95 l27 39 -24 -6 c-13 -3 -51 -12 -84 -20 -33
-8 -72 -20 -88 -27 -35 -17 -42 -7 -90 110 -180 441 -160 975 53 1400 73 146
181 300 270 385 l42 40 -17 -40 c-26 -62 -26 -326 1 -467 6 -34 5 -38 -15 -38
-12 0 -32 7 -46 16 -34 22 -98 20 -133 -5 -23 -16 -31 -32 -37 -66 -6 -43 6
-105 25 -130 5 -5 16 -39 25 -75 24 -94 62 -168 111 -217 40 -39 48 -43 94
-43 36 0 59 6 79 21 32 24 45 20 65 -19 37 -72 72 -309 63 -427 -6 -82 3 -109
56 -160 34 -32 131 -95 147 -95 6 0 10 -3 10 -8 0 -4 29 -22 64 -40 35 -18 69
-39 76 -47 6 -7 25 -17 41 -20 16 -4 53 -24 81 -46 29 -21 58 -39 65 -39 7 0
13 -3 13 -8 0 -13 57 -33 76 -25 10 4 33 20 49 35 33 30 71 39 61 13 -6 -17
19 -21 29 -5 3 6 11 10 16 10 6 0 7 -5 4 -10 -12 -20 11 -9 35 17 17 18 21 28
13 30 -23 8 -14 31 12 31 21 0 24 -4 19 -20 -5 -16 -1 -18 19 -14 39 7 110 41
126 59 7 10 18 17 23 17 8 0 67 38 78 51 9 10 120 79 128 79 14 0 74 73 87
105 7 17 13 82 15 145 3 151 2 148 30 204 16 35 24 68 25 115 1 84 25 126 64
116 14 -4 28 -11 29 -16 2 -5 13 -9 25 -9 18 0 19 2 7 10 -19 13 -4 13 40 0
55 -16 80 1 117 78 17 37 39 99 49 137 9 39 28 90 40 115 13 25 24 57 24 73 0
42 -27 98 -50 104 -11 3 -20 9 -20 14 0 20 -60 7 -98 -21 -40 -29 -76 -38 -85
-22 -3 4 1 39 9 77 28 143 13 367 -30 450 -23 43 -104 125 -140 140 -18 8 -38
21 -46 29 -7 9 -20 16 -29 16 -9 0 -22 5 -29 12 -6 6 -26 17 -44 23 -18 7 -42
16 -52 20 -27 12 -11 -13 17 -26 42 -19 63 -34 103 -73 33 -33 35 -36 9 -19
-16 10 -49 27 -72 37 -23 11 -50 27 -59 37 -10 11 -23 19 -29 19 -7 0 -18 7
-25 15 -7 8 -22 15 -34 15 -23 1 -99 39 -78 40 6 0 12 4 12 9 0 13 -34 24 -38
12 -2 -6 -11 -11 -19 -11 -12 0 -13 3 -4 14 19 23 -16 41 -98 47 -42 4 -133
12 -204 18 -109 10 -132 9 -163 -4 -20 -8 -52 -15 -71 -15 -19 0 -48 -7 -64
-16 -17 -8 -63 -26 -103 -39 -39 -13 -85 -30 -101 -38 -17 -8 -48 -22 -70 -31
-63 -26 -18 5 84 58 143 74 350 128 536 140 51 3 134 0 240 -10z m-92 -81 c-7
-2 -19 -2 -25 0 -7 3 -2 5 12 5 14 0 19 -2 13 -5z m-888 -183 c-3 -5 -12 -10
-18 -10 -7 0 -6 4 3 10 19 12 23 12 15 0z m986 -210 c10 -6 19 -18 19 -26 0
-8 13 -23 30 -32 30 -17 38 -36 20 -47 -6 -4 -8 -10 -6 -14 3 -4 -1 -25 -9
-46 l-13 -39 64 -17 c65 -17 139 -58 126 -71 -7 -6 -200 -12 -285 -9 -21 1
-64 -6 -95 -15 -31 -9 -63 -18 -69 -20 -9 -2 -10 -10 -3 -28 7 -18 5 -33 -5
-53 -8 -15 -15 -34 -15 -40 0 -8 -12 -13 -28 -13 -29 0 -72 44 -72 73 0 7 -13
23 -30 35 -41 31 -166 75 -190 67 -11 -3 -39 -3 -63 0 -36 6 -43 11 -45 30 -1
15 9 35 26 52 25 25 28 34 26 83 -2 56 5 70 38 70 9 0 29 5 45 12 15 7 53 13
83 13 30 1 70 9 88 19 27 14 42 15 84 7 29 -5 57 -7 63 -5 14 6 129 21 168 23
16 0 37 -4 48 -9z m277 -428 c7 -9 25 -22 40 -29 l27 -13 -35 4 c-19 3 -75 15
-125 27 l-90 24 45 5 c64 8 123 0 138 -18z m-983 8 l20 -9 -20 -1 c-11 -1 -41
-5 -67 -9 -59 -10 -63 2 -5 16 53 13 48 13 72 3z m169 -65 c28 -21 4 -45 -46
-45 -33 0 -39 3 -34 16 3 9 6 22 6 30 0 18 49 18 74 -1z m576 0 c19 -23 0 -35
-43 -28 -41 6 -44 24 -6 34 36 10 36 10 49 -6z m343 4 c13 -6 28 -24 34 -40
10 -26 10 -30 -5 -27 -9 2 -21 13 -27 25 -6 11 -17 28 -24 37 -16 19 -11 20
22 5z m-143 -14 c0 -8 -9 -15 -20 -15 -20 0 -26 11 -13 23 12 13 33 7 33 -8z
m440 4 c0 -5 4 -8 10 -4 13 8 44 -57 63 -132 13 -53 13 -67 2 -100 -8 -21 -14
-31 -15 -22 0 9 -10 23 -23 32 -12 8 -36 42 -52 76 -22 45 -38 63 -58 71 l-29
10 32 40 c29 37 70 54 70 29z m-1454 -16 c25 -34 16 -41 -31 -23 -23 9 -25 13
-15 25 16 20 30 19 46 -2z m1084 -43 c0 -5 -4 -10 -10 -10 -5 0 -10 5 -10 10
0 6 5 10 10 10 6 0 10 -4 10 -10z m54 -65 c15 -14 34 -25 42 -25 27 0 43 -27
52 -86 8 -49 7 -62 -9 -88 -10 -17 -19 -42 -19 -55 0 -13 -3 -21 -7 -17 -5 4
-13 -9 -19 -30 -8 -30 -21 -45 -55 -66 -45 -27 -103 -36 -114 -17 -8 12 -43
26 -112 45 -63 16 -104 52 -96 82 3 12 2 30 -2 39 -6 17 -7 17 -16 1 -8 -15
-12 -15 -33 7 -45 45 -146 41 -161 -6 -7 -20 -47 -35 -64 -25 -5 4 -13 2 -16
-4 -4 -7 -20 3 -40 25 -37 38 -58 43 -101 20 -16 -8 -42 -15 -59 -14 -27 0
-28 1 -11 12 10 7 44 31 75 54 76 56 128 76 183 70 52 -6 109 -28 145 -57 14
-11 37 -20 51 -20 l25 0 -21 23 c-26 27 -28 43 -7 51 8 3 15 16 15 30 0 17 7
26 27 30 16 5 29 3 33 -5 4 -6 12 -9 18 -6 5 4 34 7 63 8 30 1 70 9 92 20 20
10 37 16 37 13 0 -3 8 0 18 5 29 17 58 12 86 -14z m260 -47 c21 -30 20 -48 -2
-48 -17 0 -42 36 -42 60 0 18 29 10 44 -12z m-1324 -13 c16 10 111 8 122 -3
15 -15 -7 -49 -38 -56 -14 -4 -24 -10 -21 -13 4 -3 2 -14 -3 -24 -8 -14 -6
-20 7 -28 10 -5 22 -9 28 -9 5 0 17 -14 27 -32 l17 -33 -37 -29 c-20 -17 -45
-34 -54 -39 -26 -14 -77 -4 -99 19 -11 12 -24 22 -28 22 -12 0 -151 137 -151
149 0 5 -7 11 -15 15 -28 10 -15 25 30 32 25 3 45 10 45 15 0 18 43 25 102 17
33 -4 64 -6 68 -3z m1328 -81 c-5 -25 -47 -38 -55 -18 -7 18 12 34 40 34 12 0
17 -6 15 -16z m-668 -103 c0 -9 -22 -16 -92 -26 -61 -8 -43 11 20 22 31 6 60
11 65 12 4 0 7 -3 7 -8z m480 -121 c0 -5 -5 -10 -11 -10 -5 0 -7 5 -4 10 3 6
8 10 11 10 2 0 4 -4 4 -10z m-502 -63 c45 -14 56 -30 25 -35 -10 -2 -24 -11
-30 -20 -10 -11 -30 -16 -78 -16 -54 0 -69 4 -90 24 -34 32 -32 40 13 41 20 0
46 4 57 9 29 12 54 11 103 -3z m-18 -187 c0 -32 -38 -44 -130 -42 -94 2 -140
9 -140 22 0 5 17 12 38 15 20 3 53 9 72 14 19 5 63 9 98 10 55 1 62 -1 62 -19z
m203 -22 c-5 -24 -10 -28 -37 -27 -17 0 -25 3 -18 6 6 2 12 10 12 16 0 9 38
35 47 33 1 -1 -1 -13 -4 -28z m-59 -158 c47 -22 48 -24 25 -33 -36 -14 -280
-1 -290 15 -23 36 12 48 126 44 68 -2 102 -9 139 -26z m-229 -390 c3 -5 1 -10
-4 -10 -6 0 -11 5 -11 10 0 6 2 10 4 10 3 0 8 -4 11 -10z m1012 -420 c-3 -11
-1 -20 4 -20 5 0 9 -4 9 -9 0 -11 -49 -1 -57 12 -6 10 23 37 40 37 5 0 7 -9 4
-20z m-97 -102 c0 -5 -9 -8 -21 -8 -15 0 -19 -5 -15 -15 3 -8 0 -15 -7 -16 -9
0 -9 -2 1 -6 14 -5 7 -23 -10 -23 -6 0 -8 10 -4 24 4 15 1 26 -7 29 -7 3 -5 6
6 6 10 1 17 9 17 21 0 18 2 19 20 8 11 -7 20 -16 20 -20z"/>
<path d="M2823 4164 c29 -16 67 -26 67 -19 0 9 -59 35 -77 35 -13 -1 -10 -5
10 -16z"/>
<path d="M2594 1986 c-10 -8 -16 -17 -13 -20 3 -3 14 1 25 8 10 8 16 17 13 20
-3 3 -14 -1 -25 -8z"/>
<path d="M2717 1799 c7 -7 15 -10 18 -7 3 3 -2 9 -12 12 -14 6 -15 5 -6 -5z"/>
<path d="M1686 1625 c4 -8 8 -15 10 -15 2 0 4 7 4 15 0 8 -4 15 -10 15 -5 0
-7 -7 -4 -15z"/>
<path d="M3254 1568 c-11 -17 -13 -117 -3 -124 5 -3 9 2 9 10 0 8 10 20 22 27
18 10 19 13 6 20 -12 7 -14 17 -8 44 6 26 5 35 -5 35 -8 0 -17 -5 -21 -12z"/>
<path d="M1697 1478 c8 -59 13 -61 13 -5 0 26 -4 47 -9 47 -5 0 -7 -19 -4 -42z"/>
<path d="M3130 3068 c0 -19 2 -20 10 -8 13 19 13 30 0 30 -5 0 -10 -10 -10
-22z"/>
<path d="M1840 3039 c0 -5 5 -7 10 -4 6 3 10 8 10 11 0 2 -4 4 -10 4 -5 0 -10
-5 -10 -11z"/>
</g>
</svg>
